<?xml version="1.0" encoding="utf-8"?>
<!-- Generator: Adobe Illustrator 24.0.1, SVG Export Plug-In . SVG Version: 6.00 Build 0)  -->
<svg version="1.1" id="Layer_1" xmlns="http://www.w3.org/2000/svg" xmlns:xlink="http://www.w3.org/1999/xlink" x="0px" y="0px"
	 viewBox="0 0 210 210" style="enable-background:new 0 0 210 210;" xml:space="preserve">
<style type="text/css">
	.st0{fill:#2B2B2B;}
	.st1{fill:#FFFFFF;}
</style>
<g>
	<circle class="st0" cx="105.3" cy="103.1" r="99.1"/>
	<g>
		<g>
			<path class="st1" d="M62.6,58.1V155c0,6.2,6.5,10.1,11.8,7.1l90-49.2c5.7-3.1,5.6-11.3-0.1-14.3l-90-47.8
				C69,48,62.6,51.9,62.6,58.1z"/>
		</g>
		<g>
			<path class="st1" d="M104,206C48.4,206,3.2,160.2,3.2,104C3.2,47.8,48.4,2,104,2c55.6,0,100.8,45.8,100.8,102
				C204.8,161.9,165.8,206,104,206z M104,6.9C51.2,6.9,8.2,50.5,8.2,104s43,97.1,95.8,97.1s95.8-43.6,95.8-97.1S156.8,6.9,104,6.9z"
				/>
		</g>
	</g>
</g>
</svg>
